<?xml version="1.0" encoding="UTF-8"?>
<svg id="Layer_2" data-name="Layer 2" xmlns="http://www.w3.org/2000/svg" viewBox="0 0 1705 392.89">
  <defs>
    <style>
      .cls-1 {
        fill: #fff;
        stroke-width: 0px;
      }
    </style>
  </defs>
  <g id="Layer_1-2" data-name="Layer 1">
    <g>
      <path class="cls-1" d="m246.2,330.69h-2.07c-6.22,35.24-40.43,62.2-94.85,62.2C64.27,392.89,0,328.1,0,206.81S64.79,18.66,161.2,18.66c64.27,0,110.92,29.55,136.84,82.41l-55.46,32.65c-12.95-31.1-38.35-54.42-81.37-54.42-53.39,0-88.63,33.69-88.63,97.44v58.05c0,63.24,35.25,97.45,89.67,97.45,42.5,0,77.23-20.73,77.23-61.68v-23.32h-71.01v-57.53h136.84v196.96h-59.09v-55.98Z"/>
      <path class="cls-1" d="m370.09,386.67V116.1h66.35v55.98h2.59c6.74-28.51,28.51-55.98,71.53-55.98h14.51v62.72h-20.73c-44.57,0-67.9,12.44-67.9,41.98v165.86h-66.35Z"/>
      <path class="cls-1" d="m546.54,313.07c0-55.46,41.98-82.93,115.59-82.93h46.13v-19.7c0-30.06-15.03-47.68-50.27-47.68-31.1,0-48.72,15.55-61.68,34.21l-39.39-35.25c19.7-31.1,51.32-51.83,105.74-51.83,73.08,0,111.96,34.73,111.96,96.41v127.51h26.96v52.87h-36.8c-28.5,0-46.13-18.66-50.27-46.65h-3.11c-8.81,34.73-38.36,52.87-78.78,52.87-54.94,0-86.04-31.62-86.04-79.82Zm161.71-7.26v-35.76h-42.5c-34.73,0-51.83,11.92-51.83,33.17v8.81c0,21.77,15.03,32.65,40.95,32.65,29.55,0,53.39-13.48,53.39-38.87Z"/>
      <path class="cls-1" d="m855.46,386.67V116.1h66.35v45.09h2.59c10.89-29.02,33.69-51.31,75.67-51.31,55.46,0,86.56,38.36,86.56,105.74v171.04h-66.35v-164.31c0-38.36-12.95-58.05-44.57-58.05-27.47,0-53.91,14.51-53.91,43.54v178.82h-66.35Z"/>
      <path class="cls-1" d="m1144.17,43.54v-10.36c0-19.18,11.41-33.17,38.87-33.17s38.88,13.99,38.88,33.17v10.36c0,19.18-11.92,33.17-38.88,33.17s-38.87-13.99-38.87-33.17Zm5.7,72.57h66.35v270.56h-66.35V116.1Z"/>
      <path class="cls-1" d="m1307.45,317.73v-148.76h-39.92v-52.87h20.73c19.7,0,25.92-9.33,25.92-27.99v-46.13h59.61v74.12h55.46v52.87h-55.46v164.83h51.31v52.87h-47.68c-45.61,0-69.97-24.88-69.97-68.94Z"/>
      <path class="cls-1" d="m1456.21,250.87c0-85.52,46.13-140.98,125.43-140.98,84.49,0,123.36,62.2,123.36,136.32v21.77h-179.86v6.74c0,38.87,22.29,65.31,65.83,65.31,32.65,0,52.35-15.55,68.93-36.8l35.77,39.91c-22.29,30.58-61.68,49.76-111.96,49.76-79.82,0-127.51-55.46-127.51-142.02Zm68.93-27.99v4.15h110.92v-4.66c0-37.32-19.18-62.72-53.39-62.72s-57.53,25.92-57.53,63.24Z"/>
    </g>
  </g>
</svg>